<?xml version="1.0" encoding="UTF-8" standalone="no"?>
<!DOCTYPE svg PUBLIC "-//W3C//DTD SVG 20010904//EN"
              "http://www.w3.org/TR/2001/REC-SVG-20010904/DTD/svg10.dtd">

<svg xmlns="http://www.w3.org/2000/svg"
     width="4in" height="1.33333in"
     viewBox="0 0 1200 400">
  <path id="Auswahl #1"
        fill="white" stroke="black" stroke-width="1"
        d="M 100.00,174.00
           C 94.80,162.98 91.78,157.08 84.57,147.00
             80.62,141.46 76.36,136.08 71.84,131.00
             71.84,131.00 61.96,120.33 61.96,120.33
             60.31,118.90 57.99,117.32 56.00,116.41
             39.60,108.93 35.69,131.99 33.61,143.00
             27.77,173.98 27.95,201.78 28.00,233.00
             28.01,238.20 28.16,245.53 31.80,249.61
             36.17,254.50 47.16,255.24 49.53,243.00
             50.97,235.61 49.09,229.14 49.00,222.00
             48.73,198.33 48.46,167.62 55.00,145.00
             69.08,159.40 78.03,175.91 84.02,195.00
             86.18,201.87 88.71,214.51 97.00,215.76
             106.13,217.14 109.30,207.80 111.66,201.00
             118.60,180.99 126.01,160.29 140.00,144.00
             143.05,156.52 144.02,187.30 144.00,201.00
             144.00,201.00 143.00,216.00 143.00,216.00
             143.00,216.00 140.72,245.00 140.72,245.00
             140.21,249.59 139.99,254.93 144.22,257.99
             150.12,262.25 157.49,259.08 160.43,253.00
             163.37,246.91 163.92,227.35 164.00,220.00
             164.00,220.00 164.96,205.00 164.96,205.00
             164.96,205.00 164.96,188.00 164.96,188.00
             164.96,188.00 164.00,176.00 164.00,176.00
             163.98,161.87 162.88,147.99 160.87,134.00
             160.08,128.49 158.02,116.37 153.61,112.89
             144.49,105.68 132.19,119.68 127.21,126.00
             127.21,126.00 116.00,142.00 116.00,142.00
             111.02,149.56 102.43,165.46 100.00,174.00 Z
           M 672.00,174.00
           C 666.80,162.98 663.78,157.08 656.57,147.00
             652.62,141.46 648.36,136.08 643.84,131.00
             643.84,131.00 633.96,120.33 633.96,120.33
             632.31,118.90 629.99,117.32 628.00,116.41
             611.60,108.93 607.69,131.99 605.61,143.00
             599.77,173.98 599.95,201.78 600.00,233.00
             600.01,238.20 600.16,245.53 603.80,249.61
             608.17,254.50 619.16,255.24 621.53,243.00
             622.97,235.61 621.09,229.14 621.00,222.00
             620.73,198.33 620.46,167.62 627.00,145.00
             641.08,159.40 650.03,175.91 656.02,195.00
             658.18,201.87 660.71,214.51 669.00,215.76
             678.13,217.14 681.30,207.80 683.66,201.00
             690.60,180.99 698.01,160.29 712.00,144.00
             715.05,156.52 716.02,187.30 716.00,201.00
             716.00,201.00 715.00,216.00 715.00,216.00
             715.00,216.00 712.72,245.00 712.72,245.00
             712.21,249.59 711.99,254.93 716.22,257.99
             722.12,262.25 729.49,259.08 732.43,253.00
             735.37,246.91 735.92,227.35 736.00,220.00
             736.00,220.00 736.96,205.00 736.96,205.00
             736.96,205.00 736.96,188.00 736.96,188.00
             736.96,188.00 736.00,176.00 736.00,176.00
             735.98,161.87 734.88,147.99 732.87,134.00
             732.08,128.49 730.02,116.37 725.61,112.89
             716.49,105.68 704.19,119.68 699.21,126.00
             699.21,126.00 688.00,142.00 688.00,142.00
             683.02,149.56 674.43,165.46 672.00,174.00 Z
           M 419.00,114.57
           C 401.00,121.64 410.63,144.48 427.00,139.35
             436.96,136.23 436.63,122.99 432.57,118.13
             428.98,113.84 424.07,113.67 419.00,114.57 Z
           M 372.09,126.74
           C 365.83,130.51 365.08,138.23 365.00,145.00
             365.00,145.00 365.00,215.00 365.00,215.00
             365.08,221.39 366.37,239.85 369.41,244.90
             373.10,251.00 382.53,251.75 385.83,245.89
             387.69,242.58 387.05,228.49 387.00,224.00
             387.00,224.00 385.00,192.00 385.00,192.00
             385.00,192.00 386.68,140.00 386.68,140.00
             387.43,129.87 382.28,124.19 372.09,126.74 Z
           M 296.00,206.00
           C 297.43,204.32 298.36,202.95 300.59,202.22
             303.58,201.24 312.92,203.34 323.00,200.23
             345.38,193.32 352.14,168.86 340.00,150.00
             346.66,149.94 354.14,148.93 352.76,140.02
             351.66,132.94 342.75,132.07 337.00,132.00
             331.26,131.94 325.57,131.63 320.00,133.20
             320.00,133.20 314.00,134.79 314.00,134.79
             303.91,136.21 300.61,133.73 290.00,140.91
             277.15,149.61 270.88,165.86 274.76,181.00
             277.25,190.71 281.63,192.09 281.11,196.00
             280.61,199.70 266.31,214.68 273.51,222.70
             278.64,228.41 294.59,224.09 302.00,224.00
             305.91,223.96 320.43,224.00 318.51,230.97
             316.75,237.40 300.59,239.25 295.00,238.91
             283.46,238.19 283.11,231.31 276.00,230.24
             265.28,228.63 262.34,240.60 267.80,247.91
             273.39,255.38 285.16,257.89 294.00,258.00
             307.31,258.15 326.47,255.65 335.61,244.91
             343.88,235.19 343.20,217.27 332.00,209.97
             323.90,204.69 305.08,203.42 296.00,206.00 Z
           M 878.00,132.44
           C 867.53,134.37 854.99,138.88 848.65,148.00
             844.79,153.56 847.20,155.66 845.59,161.00
             843.42,168.19 842.10,169.95 842.15,178.00
             842.15,178.00 842.15,194.00 842.15,194.00
             844.46,208.96 854.62,220.27 869.00,224.56
             873.67,225.95 880.13,226.94 885.00,227.00
             902.08,227.20 916.51,222.95 927.48,209.00
             945.61,185.95 937.42,148.07 910.00,136.04
             900.52,131.88 888.19,131.13 878.00,132.44 Z
           M 966.00,155.00
           C 958.12,155.36 939.72,157.30 938.24,167.00
             936.12,180.86 954.65,176.38 962.00,175.00
             955.54,190.42 958.58,219.04 973.00,229.36
             981.11,235.18 992.49,236.09 1002.00,233.98
             1007.17,232.84 1012.07,230.59 1013.72,225.00
             1013.88,223.84 1013.97,222.20 1013.72,221.00
             1012.80,207.59 996.47,215.50 993.00,215.28
             989.99,215.10 987.30,213.11 985.39,210.90
             977.17,201.36 981.08,184.30 982.00,173.00
             1000.84,173.17 1008.08,184.13 1015.00,172.00
             1022.28,179.79 1029.77,176.74 1039.00,175.00
             1032.54,190.42 1035.58,219.04 1050.00,229.36
             1058.11,235.18 1069.49,236.09 1079.00,233.98
             1084.17,232.84 1089.07,230.59 1090.72,225.00
             1090.88,223.84 1090.97,222.20 1090.72,221.00
             1089.80,207.59 1073.47,215.50 1070.00,215.28
             1066.99,215.10 1064.30,213.11 1062.39,210.90
             1054.17,201.36 1058.08,184.30 1059.00,173.00
             1065.64,173.06 1068.68,173.71 1075.00,175.66
             1078.39,176.71 1083.51,178.55 1086.96,177.25
             1094.84,174.26 1093.56,164.08 1087.89,159.65
             1081.94,154.99 1072.20,155.00 1065.00,155.00
             1066.53,151.85 1067.99,148.60 1067.38,145.00
             1066.15,137.75 1059.22,135.27 1053.01,138.45
             1047.01,141.54 1043.99,148.68 1043.00,155.00
             1033.02,155.46 1021.77,157.00 1015.00,165.00
             1009.38,154.80 998.31,155.00 988.00,155.00
             989.53,151.85 990.99,148.60 990.38,145.00
             989.15,137.75 982.22,135.27 976.01,138.45
             970.01,141.54 966.99,148.68 966.00,155.00 Z
           M 237.00,179.00
           C 231.92,176.53 229.62,176.07 224.00,176.00
             215.01,175.90 207.88,175.92 200.00,181.11
             183.93,191.68 180.59,219.32 192.39,233.99
             198.15,241.15 206.99,244.61 216.00,244.96
             222.61,245.22 225.30,244.15 231.00,241.00
             231.68,246.85 234.48,250.75 241.00,249.76
             249.97,248.40 252.49,234.39 254.00,227.00
             258.13,206.75 260.77,173.97 249.04,156.00
             242.95,146.68 232.88,142.13 222.00,142.00
             218.07,141.96 213.81,141.78 210.00,142.76
             201.83,144.86 189.70,151.68 195.17,161.80
             200.50,171.96 210.13,163.51 217.00,161.80
             228.51,158.50 236.13,168.61 237.00,179.00 Z
           M 504.00,179.00
           C 498.92,176.53 496.62,176.07 491.00,176.00
             482.01,175.90 474.88,175.92 467.00,181.11
             450.93,191.68 447.59,219.32 459.39,233.99
             465.15,241.15 473.99,244.61 483.00,244.96
             489.61,245.22 492.30,244.15 498.00,241.00
             498.68,246.85 501.48,250.75 508.00,249.76
             516.97,248.40 519.49,234.39 521.00,227.00
             525.13,206.75 527.77,173.97 516.04,156.00
             509.95,146.68 499.88,142.13 489.00,142.00
             485.07,141.96 480.81,141.78 477.00,142.76
             468.83,144.86 456.70,151.68 462.17,161.80
             467.50,171.96 477.13,163.51 484.00,161.80
             495.51,158.50 503.13,168.61 504.00,179.00 Z
           M 809.00,179.00
           C 803.92,176.53 801.62,176.07 796.00,176.00
             787.01,175.90 779.88,175.92 772.00,181.11
             755.93,191.68 752.59,219.32 764.39,233.99
             770.15,241.15 778.99,244.61 788.00,244.96
             794.61,245.22 797.30,244.15 803.00,241.00
             803.68,246.85 806.48,250.75 813.00,249.76
             821.97,248.40 824.49,234.39 826.00,227.00
             830.13,206.75 832.77,173.97 821.04,156.00
             814.95,146.68 804.88,142.13 794.00,142.00
             790.07,141.96 785.81,141.78 782.00,142.76
             773.83,144.86 761.70,151.68 767.17,161.80
             772.50,171.96 782.13,163.51 789.00,161.80
             800.51,158.50 808.13,168.61 809.00,179.00 Z
           M 1152.00,179.00
           C 1146.92,176.53 1144.62,176.07 1139.00,176.00
             1130.01,175.90 1122.88,175.92 1115.00,181.11
             1098.93,191.68 1095.59,219.32 1107.39,233.99
             1113.15,241.15 1121.99,244.61 1131.00,244.96
             1137.61,245.22 1140.30,244.15 1146.00,241.00
             1146.68,246.85 1149.48,250.75 1156.00,249.76
             1164.97,248.40 1167.49,234.39 1169.00,227.00
             1173.13,206.75 1175.77,173.97 1164.04,156.00
             1157.95,146.68 1147.88,142.13 1137.00,142.00
             1133.07,141.96 1128.81,141.78 1125.00,142.76
             1116.83,144.86 1104.70,151.68 1110.17,161.80
             1115.50,171.96 1125.13,163.51 1132.00,161.80
             1143.51,158.50 1151.13,168.61 1152.00,179.00 Z
           M 418.04,144.74
           C 411.67,148.41 411.08,155.21 411.00,162.00
             411.00,162.00 411.00,196.00 411.00,196.00
             411.00,196.00 408.38,221.00 408.38,221.00
             408.38,221.00 408.92,228.00 408.92,228.00
             408.91,229.58 408.48,231.38 408.92,232.95
             410.33,237.77 416.92,238.71 420.96,236.99
             428.00,234.00 428.89,222.65 429.72,216.00
             432.23,195.84 432.27,175.32 432.00,155.00
             431.86,145.37 427.22,142.49 418.04,144.74 Z
           M 917.00,199.00
           C 917.00,199.00 910.82,191.00 910.82,191.00
             910.82,191.00 902.00,181.00 902.00,181.00
             904.75,178.86 906.92,177.21 908.55,174.00
             912.45,166.29 908.67,156.56 901.98,151.80
             897.04,148.28 891.86,147.87 886.00,148.01
             861.51,148.61 864.80,173.43 865.00,191.00
             865.09,198.38 866.24,200.24 868.00,207.00
             859.00,202.70 857.01,194.14 857.00,185.00
             856.99,180.05 856.72,175.82 858.22,171.00
             860.74,162.91 865.13,161.12 863.00,152.00
             885.44,139.28 921.62,146.14 922.00,177.00
             922.13,187.68 921.94,189.36 917.00,199.00 Z
           M 308.00,154.33
           C 311.30,153.99 313.82,153.90 317.00,155.15
             326.85,159.02 328.18,171.39 322.58,177.87
             319.31,181.66 312.85,183.18 308.00,182.82
             305.36,182.62 301.28,181.80 299.11,180.27
             291.76,175.07 292.01,158.16 308.00,154.33 Z
           M 882.00,174.00
           C 882.00,174.00 882.00,164.00 882.00,164.00
             884.61,163.53 894.67,161.68 892.38,167.71
             891.33,170.47 884.71,172.72 882.00,174.00 Z
           M 882.00,182.00
           C 882.00,182.00 899.00,201.82 899.00,201.82
             899.00,201.82 907.00,208.00 907.00,208.00
             893.52,214.90 886.83,212.83 873.00,211.00
             875.61,209.75 878.53,209.08 880.49,206.77
             885.53,200.84 879.68,188.99 882.00,182.00 Z
           M 218.00,194.33
           C 223.54,193.72 228.54,193.76 232.61,198.21
             237.71,203.79 239.73,224.09 224.00,226.67
             203.18,230.08 198.71,199.14 218.00,194.33 Z
           M 485.00,194.33
           C 490.54,193.72 495.54,193.76 499.61,198.21
             504.71,203.79 506.73,224.09 491.00,226.67
             470.18,230.08 465.71,199.14 485.00,194.33 Z
           M 790.00,194.33
           C 795.54,193.72 800.54,193.76 804.61,198.21
             809.71,203.79 811.73,224.09 796.00,226.67
             775.18,230.08 770.71,199.14 790.00,194.33 Z
           M 1133.00,194.33
           C 1138.54,193.72 1143.54,193.76 1147.61,198.21
             1152.71,203.79 1154.73,224.09 1139.00,226.67
             1118.18,230.08 1113.71,199.14 1133.00,194.33 Z
           M 869.00,207.00
           C 869.00,207.00 869.00,208.00 869.00,208.00
             869.00,208.00 868.00,207.00 868.00,207.00
             868.00,207.00 869.00,207.00 869.00,207.00 Z
           M 870.00,208.00
           C 870.00,208.00 870.00,209.00 870.00,209.00
             870.00,209.00 869.00,208.00 869.00,208.00
             869.00,208.00 870.00,208.00 870.00,208.00 Z" />
</svg>
